<svg xmlns="http://www.w3.org/2000/svg" xmlns:xlink="http://www.w3.org/1999/xlink" width="500" zoomAndPan="magnify" viewBox="0 0 375 374.999991" height="500" preserveAspectRatio="xMidYMid meet" version="1.2"><defs><clipPath id="3dda3ba621"><path d="M 18.664062 64 L 105 64 L 105 314.664062 L 18.664062 314.664062 Z M 18.664062 64 "/></clipPath><clipPath id="b919e221da"><path d="M 94 60.414062 L 356.164062 60.414062 L 356.164062 273 L 94 273 Z M 94 60.414062 "/></clipPath></defs><g id="19f769082b"><g clip-rule="nonzero" clip-path="url(#3dda3ba621)"><path style=" stroke:none;fill-rule:nonzero;fill:#8f65f6;fill-opacity:1;" d="M 73.464844 156.6875 C 91.535156 153.261719 99.027344 153.523438 104.5 158.230469 C 95.167969 161.195312 86.21875 164.054688 77.273438 166.890625 C 75.042969 167.597656 72.734375 168.101562 70.589844 169.007812 C 69.71875 169.382812 68.699219 170.542969 68.613281 171.433594 C 67.742188 180.769531 66.800781 190.117188 66.363281 199.484375 C 65.648438 215.003906 65.257812 230.550781 64.789062 246.089844 C 64.222656 264.667969 63.757812 283.25 63.105469 301.832031 C 62.992188 305.003906 62.226562 308.179688 61.554688 311.308594 C 61.300781 312.488281 60.472656 313.542969 59.898438 314.648438 C 59.628906 314.65625 59.351562 314.667969 59.082031 314.675781 C 58.539062 313.488281 57.6875 312.339844 57.53125 311.109375 C 56.738281 304.917969 55.535156 298.710938 55.5625 292.511719 C 55.675781 263.136719 55.917969 233.757812 56.597656 204.390625 C 56.851562 193.5625 58.410156 182.769531 59.367188 171.957031 C 59.421875 171.363281 59.472656 170.777344 59.570312 169.6875 C 46.257812 173.648438 32.933594 173.777344 18.679688 172.808594 C 19.882812 171.527344 20.46875 170.742188 21.199219 170.140625 C 27.191406 165.222656 34.363281 163.445312 41.820312 162.25 C 46.777344 161.457031 51.65625 160.21875 56.589844 159.242188 C 59.097656 158.746094 60.011719 157.402344 60.167969 154.753906 C 61.398438 134.121094 62.738281 113.5 64.1875 92.878906 C 64.734375 85.085938 65.597656 77.316406 66.390625 69.539062 C 66.722656 66.335938 69.03125 64.445312 72.898438 64.261719 C 75.722656 64.132812 76.984375 66.242188 77.359375 68.515625 C 77.925781 71.917969 78.441406 75.433594 78.1875 78.839844 C 77.585938 87.152344 77.515625 95.6875 75.390625 103.640625 C 73.335938 111.292969 73.457031 118.984375 72.445312 126.625 C 71.425781 134.359375 71.050781 142.1875 70.457031 149.972656 C 70.300781 152.050781 69.691406 154.386719 72.6875 155.230469 C 73.0625 155.335938 73.222656 156.207031 73.457031 156.6875 Z M 73.464844 156.6875 "/></g><g clip-rule="nonzero" clip-path="url(#b919e221da)"><path style=" stroke:none;fill-rule:nonzero;fill:#ffffff;fill-opacity:1;" d="M 275.121094 223.140625 C 269.34375 226.792969 262.898438 228.398438 255.570312 227.246094 C 260.582031 223.332031 265.234375 219.703125 269.886719 216.066406 C 274.84375 212.1875 278.074219 207.113281 279.851562 201.148438 C 281.21875 196.554688 281.105469 191.957031 278.195312 187.914062 C 271.792969 179.027344 253.925781 172.984375 243.554688 187.363281 C 241.246094 190.570312 239.425781 194.207031 237.851562 197.851562 C 230.660156 214.445312 225.113281 231.613281 220.121094 248.972656 C 218.832031 253.449219 217.609375 257.9375 216.332031 262.515625 C 214.839844 262.191406 213.613281 261.921875 212.210938 261.625 C 212.957031 255.628906 213.457031 249.820312 214.441406 244.089844 C 216.679688 231.003906 218.429688 217.777344 221.714844 204.949219 C 225.277344 191.015625 230.277344 177.449219 234.835938 163.785156 C 235.742188 161.066406 234.433594 159.625 232.734375 158.285156 C 230.96875 156.878906 229.269531 157.457031 228.492188 159.601562 C 227.550781 162.207031 226.644531 164.839844 225.886719 167.507812 C 221.375 183.472656 215.730469 198.785156 202.113281 209.605469 C 201.648438 209.972656 201.257812 210.496094 200.988281 211.027344 C 200.585938 211.804688 200.324219 212.648438 200.011719 213.460938 C 200.195312 213.582031 200.386719 213.695312 200.570312 213.816406 C 204.027344 210.558594 207.488281 207.304688 211.292969 203.710938 C 210.109375 214.578125 209.117188 224.867188 207.816406 235.121094 C 206.414062 246.289062 206.050781 257.457031 207 268.671875 C 207.191406 270.929688 208.375 272.132812 210.464844 272.621094 C 213.296875 273.285156 215.980469 271.925781 217.4375 268.480469 C 219.1875 264.328125 220.667969 260.046875 222.035156 255.757812 C 224.902344 246.761719 227.613281 237.71875 230.234375 229.207031 C 237.328125 229.644531 244.3125 230.472656 251.300781 230.429688 C 264.875 230.359375 276.976562 225.710938 287.527344 217.21875 C 289.304688 215.789062 290.472656 213.601562 291.917969 211.761719 C 291.734375 211.671875 291.5625 211.59375 291.378906 211.507812 C 285.976562 215.40625 280.75 219.582031 275.128906 223.128906 Z M 242.09375 226 C 235.460938 227.464844 234.023438 226.035156 235.394531 219.527344 C 237.5 209.492188 241.4375 200.164062 247.433594 191.820312 C 252.136719 185.253906 259.742188 185.59375 263.726562 192.59375 C 265.347656 195.445312 266.128906 198.785156 267.289062 201.90625 L 266.609375 202.160156 C 266.75 205.867188 265.632812 209.230469 263.429688 212.136719 C 257.992188 219.292969 250.882812 224.0625 242.101562 226.007812 Z M 180.679688 174.214844 C 177.464844 173.832031 174.117188 174.171875 170.867188 174.511719 C 167.722656 174.832031 164.632812 175.574219 161.109375 176.203125 C 161.859375 174.921875 162.488281 174.074219 162.871094 173.125 C 163.238281 172.226562 163.863281 170.753906 163.5 170.367188 C 162.695312 169.523438 161.304688 168.695312 160.214844 168.773438 C 158.558594 168.894531 156.773438 169.515625 155.359375 170.414062 C 148.84375 174.554688 143.03125 179.324219 140.289062 187.03125 C 138.484375 192.097656 136.160156 196.980469 131.996094 200.6875 C 128.753906 203.574219 125.53125 206.484375 122.402344 209.492188 C 121.417969 210.433594 120.789062 211.742188 119.996094 212.886719 C 120.25 213.101562 120.492188 213.320312 120.746094 213.546875 C 124.386719 210.226562 128.03125 206.894531 131.671875 203.574219 C 131.871094 203.652344 132.0625 203.71875 132.265625 203.800781 C 131.96875 206.023438 131.644531 208.238281 131.375 210.46875 C 130.382812 218.449219 133.34375 223.453125 140.722656 225.675781 C 151.441406 228.910156 161.757812 228.171875 171.503906 222.171875 C 185.105469 213.792969 192.667969 198.722656 190.4375 184.066406 C 189.558594 178.269531 186.515625 174.921875 180.6875 174.222656 Z M 174.328125 217.949219 C 171.113281 219.9375 167.574219 221.5625 163.996094 222.773438 C 153.992188 226.148438 146.273438 220.75 145.558594 210.136719 C 145.515625 209.449219 145.558594 208.75 145.558594 208.054688 C 145.585938 202.832031 147.03125 197.914062 149.382812 193.328125 C 150.160156 191.820312 151.859375 190.746094 153.21875 189.570312 C 155.179688 187.886719 157.425781 186.492188 159.1875 184.625 C 166.53125 176.855469 180.792969 179.820312 184.136719 190.03125 C 187.074219 198.996094 184.53125 211.628906 174.328125 217.941406 Z M 109.480469 63.886719 C 108.175781 59.738281 104.855469 59.292969 102.015625 62.621094 C 101.082031 63.714844 100.265625 65.0625 99.890625 66.441406 C 99.261719 68.769531 98.746094 71.203125 98.703125 73.601562 C 98.433594 87.140625 98.453125 100.691406 98.085938 114.234375 C 97.859375 122.464844 97.257812 130.695312 96.5625 138.902344 C 96.1875 143.285156 95.253906 147.621094 94.574219 152.023438 C 97.5625 152.84375 100.054688 153.523438 102.800781 154.28125 C 102.980469 153.503906 103.183594 152.84375 103.296875 152.171875 C 105.160156 141.046875 107.128906 129.945312 108.84375 118.792969 C 111.007812 104.796875 113.027344 90.761719 112.121094 76.554688 C 111.851562 72.285156 110.78125 67.984375 109.480469 63.886719 Z M 355.519531 211.054688 C 353.453125 212.832031 351.328125 214.542969 349.332031 216.398438 C 345.527344 219.9375 341.28125 222.789062 336.210938 224.046875 C 325.503906 226.695312 314.363281 220.027344 317.246094 208.246094 C 323.535156 206.082031 329.765625 204.234375 335.769531 201.820312 C 343.285156 198.785156 349.5 194.058594 352.941406 186.367188 C 355.273438 181.128906 353.113281 177.789062 347.53125 178.871094 C 343.007812 179.742188 338.503906 181.363281 334.367188 183.40625 C 325.367188 187.84375 317.664062 194.277344 309.902344 200.546875 C 306.328125 203.425781 303.027344 206.640625 299.699219 209.816406 C 298.933594 210.546875 298.558594 211.691406 298 212.640625 C 298.234375 212.816406 298.46875 212.980469 298.707031 213.15625 C 300.9375 211.070312 303.175781 208.996094 305.464844 206.859375 C 306.6875 207.757812 307.707031 208.507812 308.65625 209.214844 C 305.683594 218.449219 309.746094 226.296875 318.953125 228.371094 C 322.820312 229.242188 327.109375 229.304688 331.039062 228.667969 C 340.117188 227.195312 347.113281 221.640625 353.65625 215.578125 C 354.769531 214.550781 355.34375 212.9375 356.164062 211.59375 C 355.945312 211.410156 355.726562 211.226562 355.511719 211.046875 Z M 339.148438 184.695312 C 342.800781 182.6875 346.136719 183.804688 349.699219 186.046875 C 343.113281 200.136719 330.3125 203.824219 316.742188 206.640625 C 321.871094 196.703125 329.730469 189.882812 339.148438 184.695312 Z M 339.148438 184.695312 "/></g><path style=" stroke:none;fill-rule:nonzero;fill:#ffffff;fill-opacity:1;" d="M 101.71875 160.75 C 100.796875 168.597656 99.714844 175.898438 99.140625 183.230469 C 98.390625 192.742188 97.859375 202.289062 97.589844 211.828125 C 97.320312 221.5625 97.292969 231.28125 94.957031 240.804688 C 94.546875 242.480469 94 244.160156 93.191406 245.667969 C 92.789062 246.417969 91.664062 247.160156 90.847656 247.195312 C 90.324219 247.214844 89.328125 245.929688 89.296875 245.191406 C 89.078125 240.960938 88.652344 236.679688 89.078125 232.496094 C 90.425781 219.371094 92.363281 206.308594 93.597656 193.179688 C 94.445312 184.285156 94.574219 175.332031 94.871094 166.394531 C 94.933594 164.542969 95.089844 163.324219 97.214844 162.84375 C 98.679688 162.511719 100.011719 161.570312 101.710938 160.761719 Z M 101.71875 160.75 "/></g></svg>